<?xml version='1.0' encoding='utf-8'?>
<!DOCTYPE svg PUBLIC '-//W3C//DTD SVG 1.1//EN' 'http://www.w3.org/Graphics/SVG/1.1/DTD/svg11.dtd'>
<svg version="1.1" xmlns="http://www.w3.org/2000/svg" viewBox="0 0 512 512" xmlns:xlink="http://www.w3.org/1999/xlink" enable-background="new 0 0 512 512">
  <g>
    <g>
      <path d="M480.6,11H31.4C20.1,11,11,20.1,11,31.4v286.7c0,11.3,9.1,20.4,20.4,20.4h204.2v68.6L116,462c-10.2,4.7-14.7,16.8-10,27.1    c4.7,10.2,16.8,14.7,27.1,10l102.5-47.1v28.5c0,11.3,9.1,20.4,20.4,20.4c11.3,0,20.4-9.1,20.4-20.4v-28.5l102.5,47.1    c14,5.6,23.6-2.5,27.1-10c4.7-10.2,0.2-22.4-10-27.1l-119.5-54.9v-68.6h204.2c11.3,0,20.4-9.1,20.4-20.4V31.4    C501,20.1,491.9,11,480.6,11z M460.2,297.7H51.8V51.8h408.3V297.7z"/>
      <path d="m122.4,217.4l82.2-44.6 86,36.9c5,2.2 10.7,2.2 15.7,0.2l100.7-40.9c10.4-4.2 15.5-16.2 11.2-26.6-4.2-10.4-16.2-15.5-26.6-11.2l-92.7,37.6-87.3-37.5c-5.7-2.5-12.3-2.2-17.8,0.8l-90.9,49.3c-9.9,5.4-13.6,17.8-8.2,27.7 3.7,6.9 14.8,15.2 27.7,8.3z"/>
    </g>
  </g>
</svg>
